<svg xmlns="http://www.w3.org/2000/svg" width="128" height="128" viewBox="0 0 128 128">
  <defs>
    <linearGradient id="th71h8-glass" x1="0" y1="0" x2="0" y2="1">
      <stop offset="0" stop-color="#ffffff" stop-opacity="0.95"></stop>
      <stop offset="0.5" stop-color="#f4f5f8" stop-opacity="0.85"></stop>
      <stop offset="1" stop-color="#e8eaf0" stop-opacity="0.9"></stop>
    </linearGradient>
    <linearGradient id="th71h8-rim" x1="0" y1="0" x2="0" y2="1">
      <stop offset="0" stop-color="#ffffff"></stop>
      <stop offset="1" stop-color="#ffffff" stop-opacity="0.3"></stop>
    </linearGradient>
    <linearGradient id="th71h8-gloss" x1="0" y1="0" x2="0" y2="1">
      <stop offset="0" stop-color="#ffffff" stop-opacity="0.7"></stop>
      <stop offset="1" stop-color="#ffffff" stop-opacity="0"></stop>
    </linearGradient>
    <filter id="th71h8-soft" x="-30%" y="-20%" width="160%" height="160%">
      <feGaussianBlur in="SourceAlpha" stdDeviation="3"></feGaussianBlur>
      <feOffset dy="4"></feOffset>
      <feComponentTransfer><feFuncA type="linear" slope="0.22"></feFuncA></feComponentTransfer>
      <feMerge><feMergeNode></feMergeNode><feMergeNode in="SourceGraphic"></feMergeNode></feMerge>
    </filter>
  </defs>
  <ellipse cx="64" cy="120" rx="52" ry="4" fill="#0a0a0a" opacity="0.1"></ellipse>
  <g filter="url(#th71h8-soft)">
    <rect x="8" y="8" width="112" height="112" rx="22" fill="url(#th71h8-glass)"></rect>
    <rect x="10" y="10" width="108" height="48" rx="20" fill="url(#th71h8-gloss)"></rect>
    <rect x="8.5" y="8.5" width="111" height="111" rx="21.5" fill="none" stroke="url(#th71h8-rim)" stroke-width="1.4"></rect>
    <rect x="8" y="8" width="112" height="112" rx="22" fill="none" stroke="#0a0a0a" stroke-opacity="0.07"></rect>
  </g>
  <defs>
  <linearGradient id="redCap" x1="0" y1="0" x2="0" y2="1">
    <stop offset="0" stop-color="#FF8466"></stop>
    <stop offset="0.55" stop-color="#FF5A3C"></stop>
    <stop offset="1" stop-color="#C8331A"></stop>
  </linearGradient>
  <linearGradient id="redGloss" x1="0" y1="0" x2="0" y2="1">
    <stop offset="0" stop-color="#ffffff" stop-opacity="0.65"></stop>
    <stop offset="0.5" stop-color="#ffffff" stop-opacity="0"></stop>
  </linearGradient>
  <linearGradient id="whiteBody" x1="0" y1="0" x2="0" y2="1">
    <stop offset="0" stop-color="#ffffff"></stop>
    <stop offset="1" stop-color="#d4d8e0"></stop>
  </linearGradient>
  <linearGradient id="whiteGloss" x1="0" y1="0" x2="0" y2="1">
    <stop offset="0" stop-color="#ffffff" stop-opacity="0.95"></stop>
    <stop offset="0.55" stop-color="#ffffff" stop-opacity="0"></stop>
  </linearGradient>
  <filter id="dropS" x="-20%" y="-20%" width="140%" height="140%">
    <feGaussianBlur in="SourceAlpha" stdDeviation="1.5"></feGaussianBlur>
    <feOffset dy="2"></feOffset>
    <feComponentTransfer><feFuncA type="linear" slope="0.3"></feFuncA></feComponentTransfer>
    <feMerge><feMergeNode></feMergeNode><feMergeNode in="SourceGraphic"></feMergeNode></feMerge>
  </filter>
</defs>
  
  <line x1="32" y1="98" x2="100" y2="98" stroke="#9aa0ad" stroke-width="1.2"></line>
  <line x1="32" y1="34" x2="32" y2="98" stroke="#9aa0ad" stroke-width="1.2"></line>
  
  <line x1="32" y1="50" x2="100" y2="50" stroke="#cdd1d8" stroke-width="0.6" stroke-dasharray="2 3"></line>
  <line x1="32" y1="74" x2="100" y2="74" stroke="#cdd1d8" stroke-width="0.6" stroke-dasharray="2 3"></line>
  
  <path d="M34 86 L50 70 L66 78 L82 50 L98 60 L98 98 L34 98 Z" fill="#FF5A3C" opacity="0.15"></path>
  
  <path d="M34 88 L50 72 L66 80 L82 52 L98 62" fill="none" stroke="#C8331A" stroke-width="5" stroke-linecap="round" stroke-linejoin="round" opacity="0.4"></path>
  
  <path d="M34 86 L50 70 L66 78 L82 50 L98 60" fill="none" stroke="url(#redCap)" stroke-width="4.5" stroke-linecap="round" stroke-linejoin="round"></path>
  
  
    <g><g transform="translate(1 1.5)" opacity="0.4"><circle cx="34" cy="86" r="4" fill="#C8331A"></circle></g>
       <circle cx="34" cy="86" r="4" fill="url(#redCap)"></circle>
       <circle cx="33" cy="85" r="1.5" fill="#ffffff" opacity="0.7"></circle></g>
    <g><g transform="translate(1 1.5)" opacity="0.4"><circle cx="50" cy="70" r="4" fill="#C8331A"></circle></g>
       <circle cx="50" cy="70" r="4" fill="url(#redCap)"></circle>
       <circle cx="49" cy="69" r="1.5" fill="#ffffff" opacity="0.7"></circle></g>
    <g><g transform="translate(1 1.5)" opacity="0.4"><circle cx="66" cy="78" r="4" fill="#C8331A"></circle></g>
       <circle cx="66" cy="78" r="4" fill="url(#redCap)"></circle>
       <circle cx="65" cy="77" r="1.5" fill="#ffffff" opacity="0.7"></circle></g>
    <g><g transform="translate(1 1.5)" opacity="0.4"><circle cx="82" cy="50" r="4" fill="#C8331A"></circle></g>
       <circle cx="82" cy="50" r="4" fill="url(#redCap)"></circle>
       <circle cx="81" cy="49" r="1.5" fill="#ffffff" opacity="0.7"></circle></g>
    <g><g transform="translate(1 1.5)" opacity="0.4"><circle cx="98" cy="60" r="4" fill="#C8331A"></circle></g>
       <circle cx="98" cy="60" r="4" fill="url(#redCap)"></circle>
       <circle cx="97" cy="59" r="1.5" fill="#ffffff" opacity="0.7"></circle></g>

</svg>