<svg width="1558" height="377" viewBox="0 0 1558 377" fill="none" xmlns="http://www.w3.org/2000/svg">
<g clip-path="url(#clip0_21_3)">
<path d="M396.18 83.7003L382 88.9403C370.49 93.2003 361.4 102.28 357.15 113.8L351.91 127.96C348.22 137.93 334.13 137.93 330.45 127.96L325.21 113.8C320.96 102.28 311.87 93.2003 300.36 88.9403L286.18 83.7003C284.93 83.2403 283.83 82.6103 282.9 81.8603C276.39 76.6403 277.48 65.4803 286.18 62.2503L293.48 59.5403L300.35 57.0003C311.86 52.7403 320.95 43.6603 325.2 32.1503L330.44 17.9703C334.13 8.02031 348.22 8.02031 351.9 17.9703L357.14 32.1503C361.39 43.6603 370.48 52.7403 381.99 57.0003L396.17 62.2403C406.12 65.9303 406.12 80.0203 396.17 83.6903L396.18 83.7003Z" fill="#E92F23"/>
<path d="M215.62 153.13C215.05 155.38 212.9 156.82 210.6 156.51C205.86 155.85 201.28 154.96 196.83 153.85C175.5 148.5 158.58 138.19 146.54 123.19C138.49 113.19 132.95 101.5 129.97 88.2601C129.8 87.5001 129.64 86.7501 129.48 85.9801C129.38 85.5101 129.29 85.0301 129.21 84.5501C129.12 84.0701 129.03 83.5701 128.95 83.0701C128.83 82.3601 128.71 81.6301 128.61 80.8901C128.46 80.0301 128.35 79.1501 128.25 78.2801C128.23 78.1601 128.21 78.0501 128.21 77.9501C128.07 76.7601 127.94 75.5701 127.84 74.3601C127.83 74.2801 127.81 74.2101 127.82 74.1301C127.71 72.9201 127.63 71.6801 127.56 70.4401L127.08 61.3601C126.97 59.1901 127.97 57.1001 129.75 55.8501C190.38 13.3401 257.02 -5.48989 310.44 1.39011C313.65 1.80011 314.85 5.82011 312.39 7.92011C261.84 51.1901 228.17 103.84 215.61 153.13H215.62Z" fill="#E92F23"/>
<path d="M300.41 306.17C299.95 306.55 299.5 306.91 299.03 307.26C198.58 387.22 75.34 399.56 23.23 334.67C-28.13 270.74 8.55003 155.61 104.98 74.8803C106.71 73.4303 109.35 74.5503 109.57 76.7903C111.61 98.5203 118.99 118.32 132.19 134.73C155.96 164.31 194.52 177.85 238.96 176.21C287.12 174.47 342.19 154.94 392.84 118.77C397.18 115.66 401.5 112.44 405.76 109.09C408.1 108.16 410.81 109.71 411.13 112.29C411.14 112.31 411.15 112.34 411.14 112.37C411.14 112.59 411.15 112.82 411.14 113.05C411.14 113.08 411.14 113.11 411.13 113.16C410.86 175.25 370.56 249.81 300.41 306.17Z" fill="#E92F23"/>
<path d="M538.49 90.5001C545.29 86.6601 553.29 84.7301 562.48 84.7301C572.16 84.7301 580.07 86.8301 586.2 91.0301C592.33 95.2301 596.07 101.18 597.42 108.87H629.96C628.37 98.3401 624.54 89.2801 618.47 81.7101C612.4 74.1401 604.65 68.3101 595.21 64.2201C585.77 60.1401 574.86 58.1001 562.48 58.1001C547.16 58.1001 533.74 61.1801 522.22 67.3301C510.7 73.4901 501.75 82.1301 495.38 93.2501C489.01 104.38 485.82 117.39 485.82 132.31C485.82 147.23 488.91 159.71 495.1 170.83C501.29 181.96 509.87 190.62 520.84 196.84C531.81 203.05 544.53 206.16 558.99 206.16C568.92 206.16 577.44 204.56 584.55 201.37C591.66 198.17 596.93 193.5 600.36 187.35H601.28V204.04H629.96V148.65C629.96 141.67 628.03 136.4 624.17 132.85C620.31 129.3 614.58 127.52 606.98 127.52H560.28V150.78H599.44V156.28C599.44 161.02 597.85 165.28 594.66 169.06C591.47 172.85 587.12 175.81 581.61 177.94C576.09 180.07 569.9 181.14 563.04 181.14C553.72 181.14 545.63 179.16 538.77 175.19C531.9 171.23 526.57 165.6 522.77 158.32C518.97 151.04 517.07 142.43 517.07 132.49C517.07 122.55 518.94 114.32 522.68 107.1C526.42 99.8801 531.69 94.3501 538.49 90.5001Z" fill="black"/>
<path d="M676.11 54.9102H645.59V204.04H676.11V54.9102Z" fill="black"/>
<path d="M781.18 102.13C772.42 97.6304 762.03 95.3804 750.02 95.3804C738.01 95.3804 727.5 97.6304 718.49 102.13C709.48 106.63 702.55 113.02 697.71 121.3C692.87 129.59 690.45 139.35 690.45 150.59C690.45 161.83 692.9 171.63 697.8 179.97C702.7 188.31 709.6 194.77 718.48 199.32C727.37 203.88 737.81 206.15 749.83 206.15C761.85 206.15 772.29 203.9 781.18 199.4C790.07 194.9 796.9 188.48 801.68 180.14C806.46 171.8 808.85 162 808.85 150.76C808.85 139.52 806.43 129.58 801.59 121.29C796.75 113.01 789.94 106.62 781.18 102.12V102.13ZM770.97 172.52C766.07 177.91 759.02 180.6 749.83 180.6C740.64 180.6 733.37 177.91 728.41 172.52C723.45 167.14 720.96 159.83 720.96 150.6C720.96 141.37 723.44 134.12 728.41 128.85C733.37 123.59 740.51 120.95 749.83 120.95C759.15 120.95 766.07 123.59 770.97 128.85C775.87 134.12 778.32 141.37 778.32 150.6C778.32 159.83 775.87 167.14 770.97 172.52Z" fill="black"/>
<path d="M940.3 179.8C944.34 171.46 946.37 161.78 946.37 150.77C946.37 139.76 944.41 129.91 940.49 121.57C936.57 113.23 930.87 106.78 923.39 102.22C915.91 97.6702 906.84 95.3902 896.18 95.3902C888.09 95.3902 881.16 96.8402 875.4 99.7402C869.64 102.64 865.1 106.75 861.8 112.08H861.06V54.9102H830.54V174.92H815.46V204.04H846.35V186.64H854.07C857.99 192.8 863.23 197.59 869.79 201.02C876.35 204.45 884.28 206.17 893.6 206.17C905 206.17 914.62 203.86 922.46 199.25C930.3 194.63 936.25 188.15 940.29 179.81L940.3 179.8ZM908.86 172.61C904.2 177.94 897.21 180.6 887.9 180.6C879.69 180.6 873.16 178.38 868.32 173.94C863.48 169.5 861.06 163.38 861.06 155.57V145.98C861.06 138.17 863.48 132.04 868.32 127.61C873.16 123.17 879.69 120.95 887.9 120.95C897.21 120.95 904.2 123.61 908.86 128.94C913.52 134.27 915.85 141.54 915.85 150.78C915.85 160.02 913.52 167.29 908.86 172.62V172.61Z" fill="black"/>
<path d="M1049.14 150.95C1043.74 145.98 1035.29 142.37 1023.77 140.12L998.58 135.5C994.78 134.79 991.96 133.67 990.12 132.13C988.28 130.59 987.36 128.7 987.36 126.45C987.36 123.25 988.83 120.86 991.77 119.26C994.71 117.66 999 116.86 1004.64 116.86C1011.14 116.86 1016.1 117.99 1019.53 120.23C1022.96 122.48 1025.35 126.09 1026.7 131.06H1056.12C1055.26 119.82 1050.48 111.06 1041.78 104.79C1033.08 98.5204 1021.31 95.3804 1006.48 95.3804C991.65 95.3804 979.82 98.4304 971.36 104.52C962.9 110.62 958.67 118.75 958.67 128.93C958.67 144.79 969.7 154.79 991.76 158.93L1016.4 163.55C1020.81 164.38 1023.97 165.59 1025.87 167.19C1027.77 168.79 1028.72 170.95 1028.72 173.67C1028.72 180.42 1022.41 183.79 1009.78 183.79C1002.06 183.79 996.14 182.55 992.04 180.06C987.93 177.57 985.39 173.79 984.41 168.7H954.99C955.73 180.54 960.78 189.74 970.16 196.31C979.54 202.88 992.31 206.16 1008.49 206.16C1024.67 206.16 1036.22 203.08 1044.62 196.93C1053.01 190.78 1057.21 182.2 1057.21 171.19C1057.21 162.67 1054.51 155.92 1049.12 150.95H1049.14Z" fill="black"/>
<path d="M1086.74 198.26C1091.09 202.11 1097.19 204.03 1105.03 204.03H1138.49V180.95H1110.73V120.59H1135.92V97.5103H1110.36V65.5503H1080.58V97.5103H1061.28V120.59H1080.22V180.59C1080.22 188.52 1082.39 194.41 1086.75 198.26H1086.74Z" fill="black"/>
<path d="M1231.8 101.77C1223.53 97.5104 1213.63 95.3804 1202.11 95.3804C1190.59 95.3804 1180.14 97.6004 1171.5 102.04C1162.86 106.48 1156.21 112.81 1151.55 121.04C1146.89 129.27 1144.56 139.06 1144.56 150.42C1144.56 161.78 1146.95 171.63 1151.73 179.98C1156.51 188.32 1163.31 194.78 1172.14 199.33C1180.97 203.89 1191.32 206.16 1203.21 206.16C1217.79 206.16 1229.81 202.94 1239.25 196.48C1248.69 190.03 1254.63 181.12 1257.08 169.76H1226.56C1224.97 174.14 1222.27 177.39 1218.47 179.52C1214.67 181.65 1209.52 182.72 1203.03 182.72C1194.82 182.72 1188.2 180.65 1183.17 176.51C1178.14 172.37 1175.02 166.33 1173.79 158.4H1257.44V148.46C1257.44 137.45 1255.23 127.99 1250.82 120.05C1246.41 112.12 1240.06 106.03 1231.79 101.76L1231.8 101.77ZM1174.53 138.88C1176.12 132.25 1179.28 127.22 1184 123.79C1188.72 120.36 1194.82 118.64 1202.29 118.64C1209.76 118.64 1215.71 120.33 1220.12 123.7C1224.53 127.07 1227.23 132.13 1228.21 138.88H1174.52H1174.53Z" fill="black"/>
<path d="M1349.19 121.83V96.27H1339.81C1331.84 96.27 1324.67 98.11 1318.3 101.77C1311.92 105.44 1307.27 111 1304.33 118.46H1296.61V97.51H1265.72V126.63H1280.8V204.03H1310.77V150.24C1310.77 141.72 1313 134.86 1317.48 129.65C1321.95 124.44 1328.97 121.84 1338.53 121.84H1349.19V121.83Z" fill="black"/>
<path d="M1434.13 139.94C1419.91 139.94 1409 142.78 1401.4 148.46C1393.8 154.14 1390 162.25 1390 172.78C1390 182.72 1393.68 190.74 1401.03 196.83C1408.38 202.93 1418.56 205.97 1431.55 205.97C1441.11 205.97 1449.08 204.28 1455.45 200.91C1461.82 197.54 1466.91 192.77 1470.71 186.62H1478.43V204.02H1509.32V174.9H1494.98V137.09C1494.98 123.48 1490.66 113.12 1482.02 106.02C1473.38 98.9201 1460.85 95.3701 1444.42 95.3701C1429.59 95.3701 1417.7 98.3901 1408.75 104.42C1399.8 110.46 1394.1 119.33 1391.65 131.05H1421.99C1424.56 122.77 1432.04 118.62 1444.42 118.62C1458.64 118.62 1465.75 124.36 1465.75 135.84V139.92H1434.13V139.94ZM1465.75 161.07C1465.75 165.33 1464.46 169.15 1461.89 172.52C1459.32 175.89 1455.82 178.59 1451.41 180.6C1447 182.61 1441.91 183.62 1436.15 183.62C1430.88 183.62 1426.71 182.55 1423.65 180.42C1420.58 178.29 1419.05 175.27 1419.05 171.37C1419.05 163.44 1424.57 159.48 1435.6 159.48H1465.75V161.08V161.07Z" fill="black"/>
<path d="M1554.55 97.5103H1524.03V204.03H1554.55V97.5103Z" fill="black"/>
<path d="M1539.29 87.0402C1543.95 87.0402 1547.9 85.4702 1551.15 82.3402C1554.4 79.2102 1556.02 75.3902 1556.02 70.8902C1556.02 66.3902 1554.39 62.5802 1551.15 59.4402C1547.9 56.3102 1543.95 54.7402 1539.29 54.7402C1534.63 54.7402 1530.68 56.3102 1527.43 59.4402C1524.18 62.5802 1522.56 66.4002 1522.56 70.8902C1522.56 75.3802 1524.18 79.2102 1527.43 82.3402C1530.68 85.4802 1534.63 87.0402 1539.29 87.0402Z" fill="black"/>
<path d="M540.06 258.6C534.56 255.66 528.08 254.19 520.61 254.19C513.14 254.19 506.75 255.68 501.25 258.65C495.75 261.62 491.48 265.8 488.43 271.2C485.38 276.6 483.86 282.96 483.86 290.28C483.86 297.6 485.38 303.9 488.43 309.32C491.48 314.74 495.75 318.94 501.25 321.91C506.75 324.88 513.2 326.37 520.61 326.37C528.02 326.37 534.47 324.89 539.97 321.91C545.47 318.94 549.74 314.74 552.79 309.32C555.84 303.9 557.36 297.55 557.36 290.28C557.36 283.01 555.85 276.51 552.83 271.11C549.81 265.72 545.55 261.55 540.06 258.6ZM538.4 308.97C534.13 313.59 528.2 315.89 520.61 315.89C513.02 315.89 507.09 313.6 502.82 309.01C498.55 304.42 496.41 298.18 496.41 290.27C496.41 282.36 498.55 276.12 502.82 271.53C507.09 266.94 513.02 264.65 520.61 264.65C528.2 264.65 534.2 266.94 538.45 271.53C542.69 276.12 544.81 282.36 544.81 290.27C544.81 298.18 542.67 304.35 538.4 308.96V308.97Z" fill="black"/>
<path d="M601.1 272.45C596.56 272.45 592.69 273.24 589.49 274.83C586.29 276.42 583.74 278.68 581.83 281.62H578.07V273.4H565.34V285.26H571.52V325.33H583.71V295.99C583.71 291.72 584.9 288.46 587.29 286.21C589.68 283.96 593.17 282.83 597.78 282.83C602.39 282.83 605.86 283.96 608.22 286.21C610.58 288.46 611.76 291.72 611.76 295.99V325.33H623.95V293.91C623.95 287.39 621.93 282.18 617.9 278.29C613.87 274.4 608.27 272.45 601.1 272.45Z" fill="black"/>
<path d="M675.3 275.43C671.42 273.38 666.79 272.36 661.41 272.36C656.03 272.36 650.92 273.46 646.8 275.65C642.68 277.84 639.5 280.94 637.25 284.95C635.01 288.96 633.89 293.71 633.89 299.19C633.89 304.67 635.02 309.46 637.3 313.56C639.57 317.66 642.81 320.82 647.02 323.04C651.23 325.26 656.18 326.37 661.85 326.37C668.54 326.37 674.11 324.86 678.57 321.83C683.02 318.8 685.9 314.57 687.22 309.15H674.85C674.01 311.69 672.49 313.59 670.28 314.86C668.07 316.13 665.23 316.76 661.77 316.76C657.05 316.76 653.28 315.48 650.48 312.91C647.67 310.34 646.03 306.69 645.55 301.96H687.5V297.63C687.5 292.44 686.44 287.95 684.32 284.17C682.2 280.39 679.2 277.48 675.31 275.43H675.3ZM645.91 293.74C646.75 289.93 648.51 287 651.2 284.96C653.89 282.91 657.29 281.89 661.42 281.89C665.55 281.89 668.86 282.92 671.37 284.96C673.88 287.01 675.37 289.94 675.85 293.74H645.91Z" fill="black"/>
<path d="M721.37 294.34H694.93V304.38H721.37V294.34Z" fill="black"/>
<path d="M756.33 316.15C751.61 316.15 747.87 314.68 745.13 311.74C742.38 308.8 741.01 304.67 741.01 299.36C741.01 294.05 742.38 289.93 745.13 286.98C747.88 284.04 751.61 282.57 756.33 282.57C759.85 282.57 762.74 283.29 764.98 284.73C767.22 286.17 768.79 288.31 769.69 291.13H781.97C780.66 285.19 777.76 280.57 773.28 277.28C768.8 273.99 763.15 272.35 756.34 272.35C750.78 272.35 745.94 273.46 741.82 275.68C737.7 277.9 734.5 281.03 732.23 285.07C729.96 289.11 728.82 293.87 728.82 299.35C728.82 304.83 729.97 309.59 732.27 313.63C734.57 317.67 737.78 320.8 741.9 323.02C746.02 325.24 750.83 326.35 756.33 326.35C763.44 326.35 769.24 324.65 773.72 321.24C778.2 317.84 781.04 312.99 782.23 306.7H769.95C768.28 312.99 763.73 316.13 756.33 316.13V316.15Z" fill="black"/>
<path d="M802.66 252.63H790.47V325.33H802.66V252.63Z" fill="black"/>
<path d="M822.92 253.67C820.95 253.67 819.29 254.33 817.95 255.66C816.61 256.99 815.93 258.57 815.93 260.42C815.93 262.27 816.62 263.93 817.99 265.22C819.36 266.52 821.01 267.17 822.92 267.17C824.83 267.17 826.55 266.51 827.89 265.18C829.23 263.85 829.91 262.27 829.91 260.42C829.91 258.57 829.22 256.92 827.85 255.62C826.47 254.32 824.83 253.67 822.92 253.67Z" fill="black"/>
<path d="M829.01 273.4H816.82V325.33H829.01V273.4Z" fill="black"/>
<path d="M867.28 316.15C862.56 316.15 858.82 314.68 856.08 311.74C853.33 308.8 851.96 304.67 851.96 299.36C851.96 294.05 853.33 289.93 856.08 286.98C858.83 284.04 862.56 282.57 867.28 282.57C870.8 282.57 873.69 283.29 875.93 284.73C878.17 286.17 879.74 288.31 880.64 291.13H892.92C891.61 285.19 888.71 280.57 884.23 277.28C879.75 273.99 874.1 272.35 867.29 272.35C861.73 272.35 856.89 273.46 852.77 275.68C848.65 277.9 845.45 281.03 843.18 285.07C840.91 289.11 839.77 293.87 839.77 299.35C839.77 304.83 840.92 309.59 843.22 313.63C845.52 317.67 848.73 320.8 852.85 323.02C856.97 325.24 861.78 326.35 867.28 326.35C874.39 326.35 880.19 324.65 884.67 321.24C889.15 317.84 891.99 312.99 893.18 306.7H880.9C879.23 312.99 874.68 316.13 867.28 316.13V316.15Z" fill="black"/>
<path d="M951.98 273.4H937.28L913.53 294.69H913.17V252.63H900.98V325.33H913.17V306.55L919.71 301.35L939.43 325.33H953.95L928.14 294.17L951.98 273.4Z" fill="black"/>
<path d="M1022.24 264.74C1027.44 264.74 1031.73 265.87 1035.1 268.12C1038.47 270.37 1040.58 273.57 1041.42 277.73H1054.24C1053.34 272.77 1051.46 268.54 1048.59 265.05C1045.72 261.56 1042.05 258.88 1037.57 257C1033.09 255.13 1027.98 254.19 1022.24 254.19C1014.83 254.19 1008.38 255.68 1002.88 258.65C997.38 261.62 993.12 265.8 990.11 271.2C987.09 276.6 985.58 282.98 985.58 290.37C985.58 297.76 987.09 304 990.11 309.45C993.13 314.9 997.38 319.11 1002.88 322.09C1008.38 325.06 1014.83 326.55 1022.24 326.55C1027.98 326.55 1033.09 325.61 1037.57 323.74C1042.05 321.87 1045.73 319.17 1048.59 315.65C1051.46 312.13 1053.34 307.92 1054.24 303.01H1041.42C1040.58 307.11 1038.48 310.29 1035.1 312.57C1031.72 314.85 1027.44 315.99 1022.24 315.99C1014.71 315.99 1008.78 313.71 1004.45 309.15C1000.12 304.59 997.95 298.33 997.95 290.37C997.95 282.41 1000.12 276.15 1004.45 271.59C1008.78 267.03 1014.71 264.75 1022.24 264.75V264.74Z" fill="black"/>
<path d="M1075.3 252.63H1063.11V325.33H1075.3V252.63Z" fill="black"/>
<path d="M1135.17 292.44C1135.17 285.92 1133.14 280.94 1129.08 277.51C1125.02 274.08 1119.13 272.36 1111.42 272.36C1104.55 272.36 1098.98 273.8 1094.7 276.69C1090.43 279.58 1087.78 283.7 1086.77 289.07H1098.96C1100.33 284.28 1104.46 281.89 1111.33 281.89C1119.46 281.89 1123.52 285.35 1123.52 292.28V294.44H1106.49C1099.8 294.44 1094.66 295.82 1091.07 298.59C1087.48 301.36 1085.69 305.25 1085.69 310.27C1085.69 315.29 1087.47 318.92 1091.02 321.87C1094.57 324.81 1099.43 326.28 1105.58 326.28C1110.06 326.28 1113.88 325.47 1117.05 323.86C1120.22 322.25 1122.73 320 1124.58 317.11H1128.34V325.33H1140.98V313.47H1135.15V292.44H1135.17ZM1123.52 304.3C1123.52 306.67 1122.82 308.81 1121.41 310.75C1120.01 312.68 1118.08 314.23 1115.63 315.38C1113.18 316.54 1110.43 317.11 1107.38 317.11C1104.33 317.11 1101.73 316.46 1099.94 315.16C1098.15 313.86 1097.25 312.06 1097.25 309.75C1097.25 305.02 1100.54 302.65 1107.11 302.65H1123.51V304.29L1123.52 304.3Z" fill="black"/>
<path d="M1208.13 310.87H1207.68L1193.88 273.4H1181.87L1168.15 310.87H1167.7L1155.96 273.4H1143.42L1160.62 325.33H1173.89L1187.6 288.28H1187.96L1201.85 325.33H1215.12L1232.24 273.4H1219.87L1208.13 310.87Z" fill="black"/>
<path d="M1312.72 292.44C1312.72 285.92 1310.69 280.94 1306.62 277.51C1302.56 274.08 1296.67 272.36 1288.96 272.36C1282.09 272.36 1276.52 273.8 1272.24 276.69C1267.97 279.58 1265.32 283.7 1264.31 289.07H1276.5C1277.87 284.28 1282 281.89 1288.87 281.89C1297 281.89 1301.06 285.35 1301.06 292.28V294.44H1284.03C1277.34 294.44 1272.2 295.82 1268.61 298.59C1265.03 301.36 1263.23 305.25 1263.23 310.27C1263.23 315.29 1265.01 318.92 1268.56 321.87C1272.11 324.81 1276.97 326.28 1283.12 326.28C1287.6 326.28 1291.42 325.47 1294.59 323.86C1297.76 322.25 1300.27 320 1302.12 317.11H1305.88V325.33H1318.52V313.47H1312.69V292.44H1312.72ZM1301.07 304.3C1301.07 306.67 1300.37 308.81 1298.96 310.75C1297.56 312.68 1295.63 314.23 1293.18 315.38C1290.73 316.54 1287.98 317.11 1284.93 317.11C1281.88 317.11 1279.28 316.46 1277.49 315.16C1275.7 313.86 1274.8 312.06 1274.8 309.75C1274.8 305.02 1278.09 302.65 1284.66 302.65H1301.06V304.29L1301.07 304.3Z" fill="black"/>
<path d="M1374.29 281.62H1370.53C1368.68 278.62 1366.18 276.33 1363.05 274.74C1359.91 273.15 1356.13 272.36 1351.71 272.36C1343.7 272.36 1337.41 274.74 1332.84 279.5C1328.27 284.26 1325.98 290.71 1325.98 298.84C1325.98 304.26 1327.01 308.95 1329.07 312.9C1331.13 316.85 1334.03 319.91 1337.76 322.07C1341.49 324.23 1345.9 325.32 1350.98 325.32C1355.1 325.32 1358.66 324.54 1361.65 322.98C1364.64 321.42 1366.88 319.17 1368.37 316.23H1368.82V324.02C1368.82 328.35 1367.45 331.68 1364.7 334.02C1361.95 336.36 1357.98 337.53 1352.78 337.53C1344.83 337.53 1340.08 334.96 1338.53 329.83H1325.62C1326.52 335.25 1329.38 339.49 1334.22 342.55C1339.06 345.61 1345.33 347.14 1353.04 347.14C1361.88 347.14 1368.71 345.15 1373.52 341.17C1378.33 337.19 1380.73 331.56 1380.73 324.29V285.26H1386.91V273.4H1374.27V281.62H1374.29ZM1368.56 301.53C1368.56 305.68 1367.24 308.99 1364.62 311.44C1361.99 313.89 1358.44 315.12 1353.95 315.12C1348.99 315.12 1345.12 313.71 1342.34 310.88C1339.56 308.05 1338.17 304.04 1338.17 298.85C1338.17 293.66 1339.56 289.72 1342.34 286.86C1345.12 284 1348.99 282.58 1353.95 282.58C1358.37 282.58 1361.91 283.81 1364.57 286.26C1367.23 288.71 1368.56 291.99 1368.56 296.08V301.53Z" fill="black"/>
<path d="M1435.5 275.43C1431.61 273.38 1426.99 272.36 1421.61 272.36C1416.23 272.36 1411.12 273.46 1407 275.65C1402.88 277.84 1399.7 280.94 1397.46 284.95C1395.22 288.96 1394.1 293.71 1394.1 299.19C1394.1 304.67 1395.23 309.46 1397.51 313.56C1399.78 317.66 1403.02 320.82 1407.23 323.04C1411.44 325.26 1416.39 326.37 1422.06 326.37C1428.75 326.37 1434.32 324.86 1438.78 321.83C1443.23 318.8 1446.11 314.57 1447.43 309.15H1435.06C1434.22 311.69 1432.7 313.59 1430.49 314.86C1428.28 316.13 1425.44 316.76 1421.98 316.76C1417.26 316.76 1413.5 315.48 1410.69 312.91C1407.88 310.34 1406.24 306.69 1405.76 301.96H1447.71V297.63C1447.71 292.44 1446.65 287.95 1444.53 284.17C1442.41 280.39 1439.41 277.48 1435.52 275.43H1435.5ZM1406.11 293.74C1406.95 289.93 1408.71 287 1411.4 284.96C1414.09 282.91 1417.49 281.89 1421.62 281.89C1425.75 281.89 1429.06 282.92 1431.57 284.96C1434.08 287.01 1435.57 289.94 1436.05 293.74H1406.11Z" fill="black"/>
<path d="M1490.62 272.45C1486.08 272.45 1482.21 273.24 1479.01 274.83C1475.81 276.42 1473.26 278.68 1471.35 281.62H1467.59V273.4H1454.86V285.26H1461.04V325.33H1473.23V295.99C1473.23 291.72 1474.43 288.46 1476.82 286.21C1479.21 283.96 1482.7 282.83 1487.31 282.83C1491.92 282.83 1495.39 283.96 1497.75 286.21C1500.11 288.46 1501.29 291.72 1501.29 295.99V325.33H1513.48V293.91C1513.48 287.39 1511.46 282.18 1507.43 278.29C1503.4 274.4 1497.8 272.45 1490.63 272.45H1490.62Z" fill="black"/>
<path d="M1543.23 316.07V282.58H1556.49V273.41H1543.14V257.83H1531.13V273.41H1521.36V282.58H1531.04V315.55C1531.04 318.84 1531.95 321.29 1533.77 322.91C1535.59 324.53 1538.15 325.33 1541.43 325.33H1557.83V316.07H1543.22H1543.23Z" fill="black"/>
<path d="M1373.28 173.15H1342.4V204.03H1373.28V173.15Z" fill="black"/>
</g>
<defs>
<clipPath id="clip0_21_3">
<rect width="1557.84" height="376.31" fill="white"/>
</clipPath>
</defs>
</svg>
